<?xml version="1.0" standalone="no"?>
<!DOCTYPE svg PUBLIC "-//W3C//DTD SVG 20010904//EN"
 "http://www.w3.org/TR/2001/REC-SVG-20010904/DTD/svg10.dtd">
<svg version="1.0" xmlns="http://www.w3.org/2000/svg"
 width="94.000000pt" height="94.000000pt" viewBox="0 0 94.000000 94.000000"
 preserveAspectRatio="xMidYMid meet">
<metadata>
Created by potrace 1.11, written by Peter Selinger 2001-2013
</metadata>
<g transform="translate(0.000000,94.000000) scale(0.100000,-0.100000)"
fill="#000000" stroke="none">
<path d="M371 920 c-130 -28 -259 -128 -319 -249 -38 -76 -39 -91 -9 -92 12
-1 33 -3 47 -4 14 -2 53 -5 88 -7 34 -1 62 -5 62 -9 0 -3 -54 -28 -121 -55
l-120 -49 5 -51 c3 -28 10 -63 16 -78 10 -26 11 -27 94 -25 46 1 89 5 97 9 9
6 13 40 15 111 3 99 9 119 39 119 26 0 35 -21 41 -95 9 -106 9 -108 21 -112 5
-2 70 10 144 26 169 37 301 37 392 2 32 -13 61 -21 64 -18 2 3 7 42 10 86 6
80 6 81 -18 82 -13 1 -33 3 -44 4 -11 1 -63 5 -115 9 -52 3 -122 8 -155 11
-33 3 -85 7 -115 9 -134 11 -215 18 -217 20 -1 1 46 22 105 46 59 23 130 53
157 65 28 12 98 42 157 66 59 24 106 49 105 54 -6 18 -109 84 -166 106 -64 24
-191 33 -260 19z m-81 -309 c0 -13 -9 -20 -30 -23 -23 -4 -30 -1 -30 12 0 23
9 30 37 30 16 0 23 -6 23 -19z"/>
<path d="M79 238 c-1 -2 -2 -32 -3 -67 -1 -54 1 -64 18 -70 47 -18 99 15 79
49 -7 10 -9 27 -6 39 8 30 -14 51 -53 51 -19 0 -34 -1 -35 -2z m71 -38 c0 -18
-49 -36 -51 -19 -4 29 -3 35 11 40 22 9 40 0 40 -21z m5 -50 c9 -15 -13 -40
-35 -40 -11 0 -20 10 -22 25 -5 22 -2 25 23 25 15 0 31 -5 34 -10z"/>
<path d="M209 238 c-1 -2 -2 -33 -3 -70 -1 -64 0 -67 24 -70 14 -2 36 -1 50 3
26 7 23 8 -35 13 -32 2 -26 40 8 44 15 2 27 8 27 13 0 5 -3 8 -7 8 -26 -4 -51
3 -49 14 3 24 16 34 41 32 14 -2 27 1 31 6 3 5 -15 9 -40 9 -25 0 -47 -1 -47
-2z"/>
<path d="M334 170 c-15 -38 -24 -73 -21 -76 3 -4 12 5 18 19 10 21 18 26 42
23 16 -2 34 -11 39 -20 5 -9 13 -16 18 -16 12 0 -45 133 -58 138 -5 1 -22 -29
-38 -68z m44 -18 c-27 -5 -30 1 -17 34 l11 29 12 -30 c11 -27 11 -30 -6 -33z"/>
<path d="M471 223 c-39 -32 -28 -105 16 -120 33 -10 73 -6 73 8 0 6 -12 8 -29
4 -23 -5 -33 -1 -49 20 -34 43 -7 91 48 83 32 -5 41 6 14 16 -27 10 -51 7 -73
-11z"/>
<path d="M600 220 c-12 -12 -20 -33 -20 -55 0 -29 6 -39 31 -54 73 -45 142 35
88 103 -25 32 -70 35 -99 6z m90 -21 c16 -29 4 -68 -25 -81 -21 -9 -28 -8 -45
7 -22 20 -27 64 -8 83 20 20 66 15 78 -9z"/>
<path d="M749 234 c-3 -5 -4 -34 -3 -64 3 -71 3 -70 12 -70 5 0 7 20 6 45 -2
25 1 45 7 45 5 0 24 -20 41 -45 18 -25 37 -45 42 -45 13 0 15 124 4 136 -8 8
-12 -19 -10 -71 2 -30 1 -29 -47 24 -26 30 -50 50 -52 45z"/>
<path d="M94 39 c-3 -6 -2 -15 3 -20 5 -5 9 -1 9 11 0 23 -2 24 -12 9z"/>
<path d="M639 38 c-11 -8 -11 -9 3 -4 11 3 18 -1 20 -12 3 -16 4 -16 10 0 8
20 -13 30 -33 16z"/>
<path d="M140 36 c0 -2 8 -10 18 -17 15 -13 16 -12 3 4 -13 16 -21 21 -21 13z"/>
<path d="M176 25 c8 -19 14 -19 14 0 0 8 -4 15 -10 15 -5 0 -7 -7 -4 -15z"/>
<path d="M211 24 c0 -11 3 -14 6 -6 3 7 2 16 -1 19 -3 4 -6 -2 -5 -13z"/>
<path d="M233 20 c1 -11 5 -20 9 -20 3 0 6 9 5 20 -1 11 -5 20 -9 20 -3 0 -6
-9 -5 -20z"/>
<path d="M285 30 c-11 -5 -18 -9 -15 -10 25 -7 37 -6 37 6 0 8 -1 14 -1 13 -1
0 -10 -4 -21 -9z"/>
<path d="M331 24 c0 -11 3 -14 6 -6 3 7 2 16 -1 19 -3 4 -6 -2 -5 -13z"/>
<path d="M358 33 c7 -3 16 -2 19 1 4 3 -2 6 -13 5 -11 0 -14 -3 -6 -6z"/>
<path d="M409 31 c11 -7 11 -9 0 -13 -8 -3 0 -5 18 -6 19 0 34 5 37 14 3 8 1
14 -4 14 -6 0 -10 -4 -10 -10 0 -5 -5 -10 -11 -10 -5 0 -8 4 -5 8 2 4 -5 9
-17 9 -15 2 -18 0 -8 -6z"/>
<path d="M501 24 c0 -11 3 -14 6 -6 3 7 2 16 -1 19 -3 4 -6 -2 -5 -13z"/>
<path d="M524 29 c-2 -4 0 -10 5 -13 5 -4 12 -2 16 4 3 5 11 10 16 10 6 0 7
-5 3 -12 -4 -7 -3 -8 5 -4 6 4 9 11 6 16 -6 10 -44 9 -51 -1z"/>
<path d="M703 33 c-21 -7 -15 -19 10 -19 13 0 24 5 24 11 0 12 -13 15 -34 8z"/>
<path d="M756 33 c5 -5 12 -12 16 -18 4 -6 8 -2 8 8 0 9 -7 17 -17 17 -9 0
-12 -3 -7 -7z"/>
<path d="M821 24 c0 -11 3 -14 6 -6 3 7 2 16 -1 19 -3 4 -6 -2 -5 -13z"/>
<path d="M120 20 c0 -5 5 -10 11 -10 5 0 7 5 4 10 -3 6 -8 10 -11 10 -2 0 -4
-4 -4 -10z"/>
<path d="M590 19 c0 -5 5 -7 10 -4 6 3 10 8 10 11 0 2 -4 4 -10 4 -5 0 -10 -5
-10 -11z"/>
</g>
</svg>
