<svg xmlns="http://www.w3.org/2000/svg" width="69" height="80" viewBox="0 0 69 80">
  <defs>
    <style>
      .cls-1 {
        fill: #c2ac76;
        fill-rule: evenodd;
      }
    </style>
  </defs>
  <path id="Icon" class="cls-1" d="M484.224,1127.69c0.162-1.83,1.776-20.37,1.776-32.69s-1.614-30.86-1.776-32.69l0.677-4.28a1.8,1.8,0,0,0-1.862-2.07h-0.182a2.582,2.582,0,0,1-1.411-.36,5.345,5.345,0,0,0-4.921,0,2.945,2.945,0,0,1-2.822,0,5.347,5.347,0,0,0-4.922,0,2.943,2.943,0,0,1-2.821,0,5.345,5.345,0,0,0-4.921,0,2.943,2.943,0,0,1-2.821,0,5.345,5.345,0,0,0-4.921,0,2.941,2.941,0,0,1-2.82,0,5.345,5.345,0,0,0-4.921,0,2.943,2.943,0,0,1-2.821,0,5.343,5.343,0,0,0-4.92,0,2.943,2.943,0,0,1-2.821,0,5.345,5.345,0,0,0-4.921,0,2.943,2.943,0,0,1-2.821,0,5.345,5.345,0,0,0-4.921,0,2.578,2.578,0,0,1-1.41.36,3.189,3.189,0,0,1-.658-0.06,1.8,1.8,0,0,0-2.168,2.03l0.681,4.38c-0.161,1.82-1.776,20.36-1.776,32.69s1.615,30.87,1.776,32.69l-0.681,4.38a1.8,1.8,0,0,0,2.168,2.03,3.189,3.189,0,0,1,.658-0.06,2.578,2.578,0,0,1,1.41.36,5.345,5.345,0,0,0,4.921,0,2.943,2.943,0,0,1,2.821,0,5.345,5.345,0,0,0,4.921,0,2.943,2.943,0,0,1,2.821,0,5.345,5.345,0,0,0,4.921,0,2.941,2.941,0,0,1,2.82,0,5.347,5.347,0,0,0,4.922,0,2.941,2.941,0,0,1,2.82,0,5.345,5.345,0,0,0,4.921,0,2.941,2.941,0,0,1,2.82,0,5.347,5.347,0,0,0,4.922,0,2.943,2.943,0,0,1,2.821,0,5.345,5.345,0,0,0,4.921,0,2.945,2.945,0,0,1,2.822,0,5.347,5.347,0,0,0,4.922,0,2.579,2.579,0,0,1,1.411-.36h0.18a1.8,1.8,0,0,0,1.863-2.07Zm-63.3-69.39a4.9,4.9,0,0,0,2.46-.6,2.943,2.943,0,0,1,2.821,0,5.345,5.345,0,0,0,4.921,0,2.943,2.943,0,0,1,2.821,0,5.345,5.345,0,0,0,4.921,0,2.941,2.941,0,0,1,2.82,0,5.345,5.345,0,0,0,4.921,0,2.943,2.943,0,0,1,2.821,0,5.345,5.345,0,0,0,4.921,0,2.943,2.943,0,0,1,2.821,0,5.345,5.345,0,0,0,4.921,0,2.943,2.943,0,0,1,2.821,0,5.345,5.345,0,0,0,4.921,0,2.943,2.943,0,0,1,2.821,0,5.347,5.347,0,0,0,4.922,0,2.943,2.943,0,0,1,2.821,0,4.873,4.873,0,0,0,2.081.59l-0.443,2.81H420.969l-0.437-2.81C420.658,1058.3,420.787,1058.3,420.921,1058.3Zm59.475,74a2.945,2.945,0,0,1-2.822,0,5.267,5.267,0,0,0-4.921,0,2.943,2.943,0,0,1-2.821,0,5.269,5.269,0,0,0-4.922,0,2.943,2.943,0,0,1-2.821,0,5.267,5.267,0,0,0-4.921,0,2.941,2.941,0,0,1-2.82,0,5.267,5.267,0,0,0-4.921,0,2.943,2.943,0,0,1-2.821,0,5.267,5.267,0,0,0-4.921,0,2.943,2.943,0,0,1-2.821,0,5.267,5.267,0,0,0-4.921,0,2.943,2.943,0,0,1-2.821,0,5.265,5.265,0,0,0-4.92,0,2.941,2.941,0,0,1-2.82,0,4.89,4.89,0,0,0-2.461-.61c-0.134,0-.263.01-0.389,0.02l0.437-2.81h61.065l0.443,2.81A4.873,4.873,0,0,0,480.4,1132.3Zm1.565-5.74H421.039c-0.366-4.28-1.686-20.48-1.686-31.56s1.32-27.28,1.686-31.56h60.922c0.366,4.28,1.686,20.48,1.686,31.56S482.327,1122.28,481.961,1126.56Zm-17.588-46.17a19.526,19.526,0,0,0-32.2,11.93,1.176,1.176,0,0,0,2.331.32,17.171,17.171,0,0,1,34,0,1.172,1.172,0,0,0,1.165,1.01,0.893,0.893,0,0,0,.162-0.01,1.173,1.173,0,0,0,1-1.32A19.377,19.377,0,0,0,464.373,1080.39Zm5.417,16.39a1.169,1.169,0,0,0-1.348.97,17.174,17.174,0,0,1-33.885-.01,1.176,1.176,0,0,0-2.322.38,19.528,19.528,0,0,0,38.53,0A1.167,1.167,0,0,0,469.79,1096.78Zm-30.34,4.62a17.052,17.052,0,0,1,9.138.04,35.206,35.206,0,0,0,9.154,1.55c2.864,0,4.137-.75,4.695-1.34a6,6,0,0,0,3.678-6.24c-0.258-3.41-2.975-7.28-8.464-8.25a16.555,16.555,0,0,0-9.914,1.99c-5.6.82-10.106,4.85-10.852,10.01A2.028,2.028,0,0,0,439.45,1101.4Zm17.792-11.93c3.059,0.54,6.264,2.64,6.527,6.11a4.009,4.009,0,0,1-1.061,3.15,12.207,12.207,0,0,0-8.944-9.19A10.253,10.253,0,0,1,457.242,1089.47Zm-8.921,1.97,0.2-.03c0.077-.01.154-0.01,0.231-0.02s0.14-.01.211-0.02,0.169-.01.254-0.01c0.059,0,.119-0.01.178-0.01,0.145-.01.292-0.01,0.439-0.01,5.707,0,10.385,3.91,10.688,8.82a3.673,3.673,0,0,1-1.161.36c-1.51.26-4.5,0.24-10.139-1.34a19.846,19.846,0,0,0-5.289-.72,19.228,19.228,0,0,0-4.636.56C440.114,1095.04,443.8,1092,448.321,1091.44Z" transform="translate(-417 -1055)"/>
</svg>
