<svg xmlns="http://www.w3.org/2000/svg" viewBox="0 0 230.12 230.12"><defs><style>.cls-1{fill:#fefefe;}.cls-1,.cls-3,.cls-4,.cls-5,.cls-6,.cls-7{fill-rule:evenodd;}.cls-2{fill:#f4f0e4;}.cls-3{fill:#333533;}.cls-4{fill:#e2e8f6;}.cls-5{fill:#6992cc;}.cls-6{fill:#8d908c;}.cls-7{fill:#bccdeb;}</style></defs><title>avatar_default</title><g id="Layer_2" data-name="Layer 2"><g id="Ñëîé_1" data-name="Ñëîé 1"><path class="cls-1" d="M115.06,0A115.06,115.06,0,1,1,0,115.06,115.06,115.06,0,0,1,115.06,0Z"/><rect class="cls-2" x="146.33" y="137.89"/><path class="cls-3" d="M176.24,168.68l.36.07-.36-.07Z"/><path class="cls-3" d="M61,165.78l.4-.14-.4.14Z"/><path class="cls-4" d="M162.73,161.85c-5.2-2.4-16.06-5.78-17.19-13.86a81.3,81.3,0,0,1-.69-10.07c0-4.4.09-8.9.5-13.61-5.89,11-15.61,18-29.74,17.67-9.89-.21-18.61-8.43-24.27-19.35a163.3,163.3,0,0,1,1.3,16.69c0,.25-.05,2-.12,3.88-.28,8.06-9.17,13.85-17.07,16.58,20.23,35.24,65.44,36,87.27,2.06Z"/><path class="cls-4" d="M115.67,142.14c14.13.3,23.85-6.71,29.74-17.67a54.51,54.51,0,0,0,4.74-12.63c-.06-2.41.74-6.23,1.08-11.39a48.71,48.71,0,0,1,1.63-10.32v-.06l-.34.45c-.61-9.93-4-27.22-5.41-31.47C143.91,56.39,140,51,106.29,52c-3.91-1.13-14.63,7-14.77,7.22a32.79,32.79,0,0,0-3.81,11.23C84.43,88.93,86.09,83.73,85,90.52a14.83,14.83,0,0,1-1.24-1.29c0,.43.08.86.13,1.3a51.45,51.45,0,0,1,1.31,9.54c.15,2.8.45,5.2.67,7.2a62,62,0,0,0,5.53,15.53c5.66,10.91,14.37,19.14,24.27,19.35Z"/><path class="cls-5" d="M83.4,88.83l.37.4A15,15,0,0,0,85,90.52c1.09-6.79-.57-1.58,2.72-20.11a32.79,32.79,0,0,1,3.81-11.23c2.24-3.55,54.65,6.34,54.82,6.48,1.43,4.25,4.22,16.37,6.17,24.85l.34-.45,0,0c1.11-3.68,2.74-6,4.94-5.83a2.71,2.71,0,0,1,.64.13,177.92,177.92,0,0,0,.09-23.88c.22-23.86-26.44-33.23-45.59-32-33.62,2.1-39.87,25.09-34.73,55.82,3.06,0,4.38,2.21,5.17,4.58Z"/><path class="cls-6" d="M148.88,62.17a.71.71,0,0,1-.08.11.16.16,0,0,0,.08-.11Z"/><path class="cls-6" d="M146,65.48l.37.17s-.16-.11-.37-.17Z"/><path class="cls-6" d="M86.53,77.8l-.14,0a.16.16,0,0,0,.14,0Z"/><path class="cls-4" d="M84.15,90.53c-.15-.6-.32-1.16-.5-1.7-1.07-3.21-2.59-5.18-4.62-5.07a2.85,2.85,0,0,0-1.42.49c-2.87,1.9-4,9-1.67,15.7,2.65,7.72,4.26,14.7,8.15,14.49,2.7-.15,2.56-2.61,2-7.17-.22-2-.52-4.41-.67-7.2a51.44,51.44,0,0,0-1.31-9.54ZM81,100.16c.58,2.42,1.71,2.77,1.62,4.77-.33,7.78-2.32,1.42-3.55-.92-1.51-2.9-1.9-8.73-1.61-10.94s1.18-6.55,2.94-6.46,4.2,6,1.84,8.76a5.28,5.28,0,0,0-1.24,4.8Z"/><path class="cls-7" d="M80.42,86.6c-1.75-.09-2.64,4.25-2.94,6.46s.09,8,1.61,10.94c1.22,2.35,3.22,8.7,3.55.92.08-2-1-2.34-1.62-4.77a5.28,5.28,0,0,1,1.24-4.8c2.36-2.75-.16-8.68-1.84-8.76Z"/><path class="cls-4" d="M152.88,90l0,.08a48.73,48.73,0,0,0-1.63,10.32c-.34,5.15-1.14,9-1.08,11.39,0,1.87.61,2.88,2.31,3,3.89.25,5.57-6.71,8.3-14.4,2.57-7.26,1.14-15-2.3-16.09a2.72,2.72,0,0,0-.64-.13c-2.2-.14-3.83,2.15-4.94,5.83Zm4.68,14.42c-1.25,2.33-3.31,8.67-3.56.89-.06-2,1.07-2.33,1.67-4.75a5.28,5.28,0,0,0-1.19-4.81c-2.33-2.78.25-8.67,1.93-8.74s2.6,4.27,2.87,6.49-.18,8-1.72,10.93Z"/><path class="cls-7" d="M156.41,87c-1.68.07-4.26,6-1.93,8.74a5.28,5.28,0,0,1,1.19,4.81c-.6,2.42-1.74,2.75-1.67,4.75.25,7.78,2.31,1.45,3.56-.89,1.54-2.89,2-8.71,1.72-10.93S158.16,87,156.41,87Z"/><path class="cls-7" d="M148,153.29c-25.5,3.34-52-15.59-56.6-30.48v0h.09l.14.27h0l0,0h.11l.12.22h0v0h0l0,0h0l0,.05h.07l.11.19h0l0,0h.11l.14.25h0v0h0l0,.09h.07l.11.19h0l0,.05h.1l.15.25h0l0,0h.12l.14.22h0l0,0h0l0,.07h.05l.13.2h0l0,.06h.12l.12.18h0l0,.07h.12l.11.17h0l0,.07h.12l.12.17h0l0,0h.14l.12.18h0l0,0h.12l.16.22h0l0,0h0v0h0l0,0h.06l.11.15h0l0,.05h0l.06.08h.07l.12.16h0l.05.07h.15l.11.14h0l.06.08h.12l.15.19h0l0,0h0l.06.08h.07l.12.15h0l.05.06h.17l.1.12h0l.06.07.12.14h0l.11.13h0l.05.06h0l.06.07h.06l.11.13h0l.08.09h.14l.12.14h0l.08.09h.15l.11.12h0l.08.09h.15l.11.11h0l.09.1h.15l.1.1h0l.07.07h0l0,0h0l0,0h.07l.11.11h0l.07.07h0l.13.13h.05l.08.08h0l.1.1h.14l.13.12h0l.09.08h0l0,0h0l0,0h.06l.08.07h0l.09.09H101l.12.11h0l.09.07h0l.11.1h0l.08.07h0l.11.09h.18l.08.06h0l.13.11h0l0,0h0l0,0h.08l.07.06h0l.09.07h.2l.08.06h0l.06,0H103l.08.06h0l.11.08h.05l0,0h0l0,0h.06l.07,0h0l.06,0h.11l0,0h0l0,0h.07l.09.06.11.08h0l.15.1h0l0,0h0l.05,0h.15l0,0h.08l.06,0h0l.05,0h.09l.16.1h0l0,0h0l.09.06h.1l.12.07h0l0,0h0l.13.07h.13l0,0h.05l0,0h0l.11.06h.31l.11.06h.23l.06,0h0l.09,0h.1l.13.07h0l.05,0h0l.09,0h.06l.18.09h.08l.1,0h.13l.09,0H108l0,0h0l.12.05h.12l.09,0h.1l.12.05h.3l.15.06h.13l.09,0h.06l.18.07h.26l.16.05H110l.1,0h0l.2.06h.25l.14,0h.14l.12,0h.05l.1,0h.12l.16,0h0l.19,0h.13l.09,0h0l.23,0h.09l.1,0h0l.27,0h.18l.21,0h.11l.1,0h0l.44.06h0l.29,0h.15l.45,0h0l.46,0h0l.46,0c14.13.29,23.85-6.71,29.74-17.67-.41,4.71-.53,9.21-.5,13.61a81.31,81.31,0,0,0,.69,10.07,10.26,10.26,0,0,0,2.48,5.29Z"/><path class="cls-5" d="M209,181.49q-.87-.67-1.83-1.31c-15.32-10.25-45.23-17.72-56.43-24.34-12.05,36.79-62.87,29-69.08-.59-13.07,4.78-47.85,13-61.46,25A115.07,115.07,0,0,0,209,181.49Z"/><path class="cls-5" d="M84.09,84.81c1.46-.38,2.1-.54,3.82-1.06,9.44-2.8,21.31-1.6,26.69,1.43a10.42,10.42,0,0,0,7.64,0c5.38-3,17.25-4.24,26.69-1.43,1.2.36,2.34.67,3.42,1a8.88,8.88,0,0,1-.27,6l-3,.1a23.12,23.12,0,0,1-3.65,6.31c-2.9,3.84-15,3.45-18.77,2.58s-7.06-9.39-7.06-9.39a11.59,11.59,0,0,0-2.36,0s-3.31,8.52-7.06,9.39S94.3,101,91.4,97.14a23.33,23.33,0,0,1-3.65-6.28c-1.14-1.83-2-2.31-4-2.08-.18-3.62,0-1.18.36-4Zm38.27,2.82c.23-2.87,24.6-7.22,24.73-.42.08,4.38-.52,8.63-4,10.58C141,99,137.6,99.3,132.57,99.44c-13.37.38-10.22-11.81-10.22-11.81Zm-7.88,0c-.53-3.34-24.6-7.06-24.73-.42-.08,4.38.52,8.63,4,10.58,2.08,1.18,5.52,1.51,10.55,1.65,13.37.38,10.24-11.76,10.22-11.81Z"/><path class="cls-5" d="M86.23,110.29c.16.36,7.68,16,11.54,10.47s13.24-10.39,15.3-9.5c4.43,1.24,7.34.77,11.53,0,2.05-.89,11.43,3.95,15.3,9.5s10.55-9.17,10.7-9.53c-1.09,7.4-.69,11.94-5.14,19.57-7.79,8.25-15.19,13.63-23.57,13.84-1,0-2.06,0-3.06,0s-2,.07-3.06,0c-8.27-.17-18.13-7-23.44-14.27-4.42-10.7-4.56-10.6-6.1-20.09Zm17.88,12.06,2.91,3.11c3.9,4.16,3.05,7,10.85,7.53h1.93c7.79-.55,6.95-3.36,10.85-7.53l2.91-3.11c-9.45-6.43-19.84-6.44-29.44,0Z"/></g></g></svg>