<svg xmlns="http://www.w3.org/2000/svg" width="104" height="80" viewBox="0 0 104 80">
  <defs>
    <style>
      .cls-1 {
        fill: #c2ac76;
        fill-rule: evenodd;
      }
    </style>
  </defs>
  <path class="cls-1" d="M855.446,1712.65H832.275a2.161,2.161,0,0,1-2.134-1.85l-0.764-5.37h21.274a1.175,1.175,0,0,0,0-2.35H827.645a0.391,0.391,0,0,1-.389-0.34l-5.777-40.62a0.386,0.386,0,0,1,.092-0.31,0.359,0.359,0,0,1,.276-0.13c0.016,0,.031-0.01.048-0.01h51.177c0.016,0,.032.01,0.048,0.01a0.359,0.359,0,0,1,.276.13,0.386,0.386,0,0,1,.092.31l-1.239,8.72a14.931,14.931,0,0,1,2.321.33l1.239-8.72a2.743,2.743,0,0,0-.642-2.18,2.8,2.8,0,0,0-.705-0.58l0.866-6.08h1.527a3.12,3.12,0,0,0,3.113-3.12v-5.15a3.113,3.113,0,0,0-3.113-3.11h-3.886l-1.08-5.24a2.5,2.5,0,0,0-2.439-1.99H825.517a2.5,2.5,0,0,0-2.439,1.99l-1.08,5.24h-3.886a3.111,3.111,0,0,0-3.112,3.11v5.15a3.12,3.12,0,0,0,3.112,3.12h1.527l0.866,6.08a2.8,2.8,0,0,0-.705.58,2.75,2.75,0,0,0-.642,2.18l5.778,40.63a2.761,2.761,0,0,0,2.062,2.27l0.822,5.78a4.52,4.52,0,0,0,4.455,3.87h24.874A16.294,16.294,0,0,1,855.446,1712.65Zm16.7-53.32H822.821l-0.814-5.72H872.96Zm-54.034-8.07a0.767,0.767,0,0,1-.768-0.77v-5.15a0.773,0.773,0,0,1,.768-0.77H828.6a1.17,1.17,0,1,0,0-2.34h-4.208l0.982-4.77a0.139,0.139,0,0,1,.143-0.11H869.45a0.14,0.14,0,0,1,.144.11l0.981,4.77H834.054a1.17,1.17,0,1,0,0,2.34h42.8a0.772,0.772,0,0,1,.768.77v5.15a0.766,0.766,0,0,1-.768.77H818.112Zm38.188,21.46c-0.008-.01-0.017-0.01-0.025-0.02-3.9-3.86-10.993-3.06-15.845,1.8a14.207,14.207,0,0,0-4.163,8.16,9.045,9.045,0,0,0,2.395,7.72,0.016,0.016,0,0,1,0,.01h0.009a8.74,8.74,0,0,0,6.3,2.48,11.2,11.2,0,0,0,1.4-.09,14.2,14.2,0,0,0,8.159-4.16c4.864-4.87,5.658-12,1.768-15.89A0.047,0.047,0,0,0,856.3,1672.72Zm-17.707,10.23a11.834,11.834,0,0,1,3.494-6.79,11.5,11.5,0,0,1,7.882-3.58,6.866,6.866,0,0,1,3.323.8c-1.968,1.17-5.024,3.47-5.954,6.88-0.808,2.97-5.2,6.25-7.6,7.78A7.054,7.054,0,0,1,838.593,1682.95Zm14.287,4.01a11.836,11.836,0,0,1-6.791,3.49,7.257,7.257,0,0,1-4.548-.79c2.417-1.6,7.046-5.07,8.059-8.78,0.826-3.04,4.093-5.08,5.584-5.87C857.5,1678.1,856.57,1683.26,852.88,1686.96Zm66.089,14.39a59.144,59.144,0,0,0-1.734-11.44,43.8,43.8,0,0,0-3.546-9.62c-5.517-9.7-11.506-8.21-18.678-6.31a52.106,52.106,0,0,1-7.251,1.42h-0.788a52.063,52.063,0,0,1-7.25-1.42c-7.172-1.82-13.162-3.39-18.679,6.39a40.162,40.162,0,0,0-3.546,9.62,59.123,59.123,0,0,0-1.734,11.43c-0.157,4.03.237,6.95,1.1,9a5.959,5.959,0,0,0,3.783,3.54,7.654,7.654,0,0,0,5.044-.55c3.074-1.26,6.62-3.94,10.088-7.17,2.443-2.37,7.014-3.55,11.585-3.55s9.142,1.18,11.585,3.55c3.468,3.23,7.014,5.91,10.088,7.17a8.2,8.2,0,0,0,5.044.55,5.872,5.872,0,0,0,3.783-3.62C918.733,1708.37,919.127,1705.45,918.969,1701.35Zm-3.783,7.88a3.093,3.093,0,0,1-1.891,1.97,5.43,5.43,0,0,1-3.231-.39c-2.759-1.1-5.99-3.55-9.143-6.55-2.994-2.99-8.275-4.49-13.555-4.49s-10.561,1.5-13.634,4.34c-3.231,2.99-6.463,5.52-9.142,6.54a4.884,4.884,0,0,1-3.231.4,3.137,3.137,0,0,1-1.892-1.98c-0.63-1.49-.946-3.94-0.788-7.57a54.447,54.447,0,0,1,1.655-10.88,37.548,37.548,0,0,1,3.31-8.91c4.335-7.81,9.379-6.55,15.368-4.97a46.634,46.634,0,0,0,7.724,1.5h1.182a46.048,46.048,0,0,0,7.8-1.5c5.99-1.5,11.034-2.84,15.368,4.97a36.269,36.269,0,0,1,3.31,8.91,59.664,59.664,0,0,1,1.655,10.88C916.211,1705.13,915.9,1707.58,915.186,1709.23Zm-35.07-23.26a4.807,4.807,0,0,0-2.838-1.35,4.494,4.494,0,0,0-1.261-2.76l-0.078-.07a4.463,4.463,0,0,0-3.232-1.35,4.653,4.653,0,0,0-3.231,1.35,4.575,4.575,0,0,0-1.34,2.83,4.708,4.708,0,0,0-2.837,1.27l-0.079.08a4.45,4.45,0,0,0-1.339,3.23,4.655,4.655,0,0,0,1.339,3.23,4.346,4.346,0,0,0,2.916,1.34,4.2,4.2,0,0,0,1.34,2.84,4.451,4.451,0,0,0,3.231,1.34,4.649,4.649,0,0,0,3.232-1.34,4.779,4.779,0,0,0,1.339-2.84,4.161,4.161,0,0,0,2.838-1.34,4.454,4.454,0,0,0,1.339-3.23A4.637,4.637,0,0,0,880.116,1685.97Zm-1.971,4.41a1.591,1.591,0,0,1-1.182.48h-1.1a1.5,1.5,0,0,0-1.5,1.49v1.03a1.655,1.655,0,1,1-3.31,0v-1.1a1.5,1.5,0,0,0-1.5-1.5h-1.1a1.618,1.618,0,0,1-1.183-2.76l0.079-.08a1.865,1.865,0,0,1,1.1-.4h1.1a1.5,1.5,0,0,0,1.5-1.5v-1.1a1.667,1.667,0,0,1,2.838-1.18l0.078,0.08a1.866,1.866,0,0,1,.394,1.1v1.1a1.5,1.5,0,0,0,1.5,1.5h1.1A1.674,1.674,0,0,1,878.145,1690.38Zm22.934-9.54a2.76,2.76,0,1,1-2.758,2.76A2.756,2.756,0,0,1,901.079,1680.84Zm0,11.2a2.76,2.76,0,1,1-2.758,2.76A2.756,2.756,0,0,1,901.079,1692.04Zm-5.595-5.6a2.76,2.76,0,1,1-2.759,2.76A2.755,2.755,0,0,1,895.484,1686.44Zm11.191,0a2.76,2.76,0,1,1-2.759,2.76A2.755,2.755,0,0,1,906.675,1686.44Z" transform="translate(-815 -1635)"/>
</svg>
