<svg xmlns="http://www.w3.org/2000/svg" width="65" height="80" viewBox="0 0 65 80">
  <defs>
    <style>
      .cls-1 {
        fill: #c2ac76;
        fill-rule: evenodd;
      }
    </style>
  </defs>
  <path class="cls-1" d="M876.886,1062.23H873l-1.081-5.24a2.5,2.5,0,0,0-2.44-1.99H825.523a2.505,2.505,0,0,0-2.441,1.99l-1.08,5.24h-3.888a3.112,3.112,0,0,0-3.114,3.11v5.15a3.121,3.121,0,0,0,3.114,3.12h1.528l0.865,6.08a2.813,2.813,0,0,0-.7.58,2.747,2.747,0,0,0-.643,2.18l5.78,40.63a2.763,2.763,0,0,0,2.064,2.27l0.823,5.78a4.521,4.521,0,0,0,4.457,3.87h30.432a4.521,4.521,0,0,0,4.457-3.87l0.823-5.78a2.763,2.763,0,0,0,2.064-2.27l5.78-40.63a2.747,2.747,0,0,0-.643-2.18,2.8,2.8,0,0,0-.705-0.58l0.866-6.08h1.528a3.121,3.121,0,0,0,3.114-3.12v-5.15A3.113,3.113,0,0,0,876.886,1062.23Zm-3.369,19.89-5.78,40.62a0.39,0.39,0,0,1-.389.34H856.125a1.175,1.175,0,0,0,0,2.35h9.49l-0.764,5.37a2.163,2.163,0,0,1-2.136,1.85H832.284a2.163,2.163,0,0,1-2.136-1.85l-0.764-5.37h21.284a1.175,1.175,0,0,0,0-2.35H827.651a0.391,0.391,0,0,1-.389-0.34l-5.78-40.62a0.386,0.386,0,0,1,.092-0.31,0.36,0.36,0,0,1,.276-0.13c0.016,0,.032-0.01.048-0.01h51.2c0.016,0,.032.01,0.048,0.01a0.359,0.359,0,0,1,.276.13A0.386,0.386,0,0,1,873.517,1082.12Zm-51.506-8.51h50.978l-0.814,5.72h-49.35Zm55.643-3.12a0.766,0.766,0,0,1-.768.77H818.114a0.767,0.767,0,0,1-.769-0.77v-5.15a0.773,0.773,0,0,1,.769-0.77h10.493a1.17,1.17,0,1,0,0-2.34H824.4l0.982-4.77a0.15,0.15,0,0,1,.144-0.11h43.954a0.15,0.15,0,0,1,.144.11l0.982,4.77H834.064a1.17,1.17,0,1,0,0,2.34h42.822a0.772,0.772,0,0,1,.768.77v5.15Z" transform="translate(-815 -1055)"/>
</svg>
