<svg xmlns="http://www.w3.org/2000/svg" viewBox="0 0 230.12 230.12"><defs><style>.cls-1{fill:#fefefe;}.cls-1,.cls-3,.cls-4,.cls-5,.cls-6,.cls-7,.cls-8{fill-rule:evenodd;}.cls-2{fill:#f4f0e4;}.cls-3{fill:#333533;}.cls-4{fill:#e2e8f6;}.cls-5{fill:#7e8084;}.cls-6{fill:#8d908c;}.cls-7{fill:#bccdeb;}.cls-8{fill:#939599;}</style></defs><title>default_avatar</title><g id="Layer_2" data-name="Layer 2"><g id="Ñëîé_1" data-name="Ñëîé 1"><path class="cls-1" d="M115.06,0A115.06,115.06,0,1,1,0,115.06,115.06,115.06,0,0,1,115.06,0Z"/><circle class="cls-2" cx="145.73" cy="136.22"/><path class="cls-3" d="M175.64,167l.36.07-.36-.07Z"/><path class="cls-3" d="M60.45,164.11l.4-.14-.4.14Z"/><path class="cls-4" d="M162.13,160.18c-5.2-2.4-16.06-5.78-17.19-13.86a81.34,81.34,0,0,1-.69-10.07c0-4.4.09-8.9.5-13.61-5.89,11-15.61,18-29.74,17.67-9.89-.21-18.61-8.43-24.27-19.35A163.3,163.3,0,0,1,92,137.67c0,.25-.05,2-.12,3.88-.28,8.06-9.17,13.85-17.07,16.58,20.23,35.24,65.44,36,87.27,2.06Z"/><path class="cls-4" d="M115.08,140.47c14.13.29,23.85-6.71,29.74-17.67a54.49,54.49,0,0,0,4.74-12.63c-.06-2.41.74-6.24,1.08-11.39a48.71,48.71,0,0,1,1.63-10.32v-.06l-.34.45c-.61-9.93-4-27.22-5.41-31.47-3.2-2.65-7.15-8.08-40.81-7.08-3.91-1.13-14.63,7-14.77,7.22a32.79,32.79,0,0,0-3.81,11.23c-3.29,18.52-1.63,13.32-2.72,20.11a14.86,14.86,0,0,1-1.24-1.29c0,.43.08.86.13,1.3A51.44,51.44,0,0,1,84.6,98.4c.15,2.8.45,5.2.67,7.2a62,62,0,0,0,5.53,15.53c5.66,10.91,14.37,19.14,24.27,19.35Z"/><path class="cls-5" d="M82.8,87.16l.37.4a14.91,14.91,0,0,0,1.24,1.29c1.09-6.79-.57-1.58,2.72-20.11a32.79,32.79,0,0,1,3.81-11.23C93.17,54,145.59,63.85,145.75,64c1.43,4.25,4.22,16.37,6.17,24.85l.34-.45,0,0c1.11-3.68,2.74-6,4.94-5.83a2.75,2.75,0,0,1,.64.13,178,178,0,0,0,.1-23.88c.22-23.86-26.44-33.23-45.59-32-33.62,2.1-39.87,25.09-34.73,55.82,3.06,0,4.38,2.21,5.17,4.58Z"/><path class="cls-6" d="M148.28,60.5a.7.7,0,0,1-.08.11.16.16,0,0,0,.08-.11Z"/><path class="cls-6" d="M145.37,63.81l.37.17s-.16-.11-.37-.17Z"/><path class="cls-6" d="M85.93,76.13l-.14,0a.16.16,0,0,0,.14,0Z"/><path class="cls-4" d="M83.55,88.86c-.15-.6-.32-1.16-.5-1.7C82,84,80.47,82,78.43,82.09a2.85,2.85,0,0,0-1.42.49c-2.87,1.9-4,9-1.67,15.7C78,106,79.6,113,83.49,112.76c2.7-.15,2.56-2.61,2-7.17-.22-2-.52-4.41-.67-7.2a51.37,51.37,0,0,0-1.31-9.54ZM80.42,98.5c.58,2.42,1.71,2.77,1.62,4.77-.33,7.78-2.32,1.42-3.55-.92-1.51-2.9-1.9-8.73-1.61-10.94s1.18-6.55,2.94-6.46,4.2,6,1.84,8.76a5.28,5.28,0,0,0-1.24,4.8Z"/><path class="cls-7" d="M79.82,84.94c-1.75-.09-2.64,4.25-2.94,6.46s.09,8,1.61,10.94c1.22,2.35,3.22,8.7,3.55.92.08-2-1-2.34-1.62-4.77a5.28,5.28,0,0,1,1.24-4.8C84,90.95,81.5,85,79.82,84.94Z"/><path class="cls-4" d="M152.28,88.36l0,.08a48.73,48.73,0,0,0-1.63,10.32c-.34,5.15-1.14,9-1.08,11.39,0,1.87.61,2.88,2.31,3,3.89.25,5.57-6.71,8.3-14.4,2.57-7.26,1.14-15-2.3-16.09a2.73,2.73,0,0,0-.64-.13c-2.2-.14-3.83,2.15-4.94,5.83ZM157,102.78c-1.25,2.33-3.31,8.67-3.56.89-.06-2,1.07-2.33,1.67-4.75a5.28,5.28,0,0,0-1.19-4.81c-2.33-2.78.25-8.68,1.93-8.74s2.6,4.27,2.87,6.49-.18,8-1.72,10.93Z"/><path class="cls-7" d="M155.81,85.37c-1.68.07-4.26,6-1.93,8.74a5.28,5.28,0,0,1,1.19,4.81c-.6,2.42-1.74,2.75-1.67,4.75.25,7.78,2.31,1.44,3.56-.89,1.54-2.89,2-8.71,1.72-10.93s-1.12-6.56-2.87-6.49Z"/><path class="cls-7" d="M147.42,151.62c-25.5,3.34-52-15.59-56.6-30.48v0h.09l.14.27h0l0,0h.11l.12.22h0v0h0l0,0h0l0,.05h.07l.11.19h0l0,0h.11l.14.25h0v0h0l0,.09h.07l.11.19h0l0,.05h.1l.15.25h0l0,0h.12l.14.22h0l0,0h0l0,.07h.05l.13.2h0l0,.06h.12l.12.18h0l0,.07h.12l.11.17h0l0,.07h.13l.12.17h0l0,0h.14l.12.18h0l0,0h.12l.16.22h0l0,0h0v0h0l0,0h.06l.11.15h0l0,.05h0l.06.08h.07l.12.16h0l.05.07h.15l.11.14h0l.06.08h.12l.15.19h0l0,0h0l.06.08h.07l.12.15h0l.05.06h.17l.1.12h0l.06.07.12.14h0l.11.13h0l.05.06h0l.06.07h.06l.11.13h0l.08.09h.14l.12.14h0l.08.09h.15l.11.12h0l.08.09h.15l.11.11h0l.1.1h.15l.1.1h0l.07.07h0l0,0h0l0,0H99l.11.11h0l.07.07h0l.13.13h.05l.08.08h0l.1.1h.13l.13.12h0l.09.08h0l0,0h0l0,0h.06l.08.07h0l.09.09h.16l.12.11h0l.09.07h0l.11.1h0l.08.07h0l.11.09h.18l.08.06h0l.13.11h0l0,0h0l0,0h.08l.07.06h0l.09.07h.2l.08.06h0l.06,0h.22l.08.06h0l.11.08h.05l0,0h0l0,0h.06l.07,0h0l.06,0h.11l0,0h0l0,0h.07l.09.06.11.08h0l.15.1h0l0,0h0l.05,0h.15l0,0H104l.06,0h0l.05,0h.09l.16.1h0l0,0h0l.09.06h.1l.12.07h0l0,0h0l.13.07h.13l0,0h.05l0,0h0l.11.06h.31l.11.06h.23l.06,0h0l.09,0h.1l.13.07h0l.05,0h0l.09,0h.06l.18.09H107l.1,0h.13l.09,0h.05l0,0h0l.12.05h.12l.09,0h.1l.12.05h.3l.15.06h.13l.09,0h.06l.18.07h.26l.16.06h.11l.1,0h0l.2.06H110l.14,0h.14l.12,0h.05l.1,0h.12l.16,0h0l.19,0h.13l.09,0h0l.23,0h.09l.1,0h0l.27,0h.18l.21,0h.11l.1,0h0l.44.06h0l.29,0h.15l.45,0h0l.46,0h0l.46,0c14.13.29,23.85-6.71,29.74-17.67-.41,4.71-.53,9.21-.5,13.61a81.34,81.34,0,0,0,.69,10.07,10.27,10.27,0,0,0,2.48,5.29Z"/><path class="cls-8" d="M209.65,180.58q-1.29-1.06-2.78-2.06c-15.32-10.25-45.23-17.72-56.43-24.34-12.05,36.79-62.87,29-69.08-.59-13.17,4.82-48.4,13.1-61.78,25.25l-.19.18a115.07,115.07,0,0,0,190.25,1.57Z"/></g></g></svg>