<svg xmlns="http://www.w3.org/2000/svg" width="80" height="80" viewBox="0 0 80 80">
  <defs>
    <style>
      .cls-1 {
        fill: #c2ac76;
        fill-rule: evenodd;
      }
    </style>
  </defs>
  <path class="cls-1" d="M852.334,2869.67h5.334a1.335,1.335,0,0,0,0-2.67h-5.334A1.335,1.335,0,0,0,852.334,2869.67Zm-20-54.67a1.335,1.335,0,0,0,1.333-1.33v-8h42.668v10.66a1.334,1.334,0,1,0,2.667,0v-16c0-2.4-3.078-5.33-6.667-5.33H837.667a6.675,6.675,0,0,0-6.667,6.67v12A1.335,1.335,0,0,0,832.334,2815Zm1.333-13.33a4,4,0,0,1,4-4h34.668c2.311,0,4,1.86,4,2.66V2803H833.667v-1.33h0Zm44,52a1.328,1.328,0,0,0-1.333,1.33v6.67H833.667v-5.34a1.334,1.334,0,0,0-2.667,0v12a6.675,6.675,0,0,0,6.667,6.67h34.668a6.675,6.675,0,0,0,6.667-6.67V2855A1.328,1.328,0,0,0,877.668,2853.67Zm-1.333,14.66a4,4,0,0,1-4,4H837.667a4,4,0,0,1-4-4v-4h42.668v4Zm-24-69.33h-2.666a1.335,1.335,0,0,0,0,2.67h2.666A1.335,1.335,0,0,0,852.334,2799Zm8,0h-2.666a1.335,1.335,0,0,0,0,2.67h2.666A1.335,1.335,0,0,0,860.334,2799Zm34.361,21.81h0a1.348,1.348,0,0,0-1.026-.48h-35l-0.68-4.58a4.026,4.026,0,0,0-3.957-3.42h-5.7V2815h5.7a1.331,1.331,0,0,1,1.32,1.14l4.659,31.45a4.026,4.026,0,0,0,3.957,3.41h3.278a3.974,3.974,0,0,0,7.509,0h5.824a3.991,3.991,0,1,0,0-2.67h-5.824a3.979,3.979,0,0,0-7.509,0h-3.278a1.334,1.334,0,0,1-1.32-1.14l-0.424-2.86h27.444a1.328,1.328,0,0,0,1.309-1.08l4-21.34A1.341,1.341,0,0,0,894.7,2820.81Zm-10.36,27.52a1.335,1.335,0,1,1-1.333,1.34A1.337,1.337,0,0,1,884.335,2848.33Zm-13.334,0a1.335,1.335,0,1,1-1.333,1.34A1.337,1.337,0,0,1,871,2848.33Zm17.561-6.66H861.831L859.066,2823h33ZM849.668,2835a17.334,17.334,0,1,0-17.334,17.33A17.333,17.333,0,0,0,849.668,2835Zm-32,0a14.667,14.667,0,1,1,14.667,14.67A14.669,14.669,0,0,1,817.667,2835Zm16,10.67v-1.53a5.318,5.318,0,0,0-1.333-10.47A2.67,2.67,0,1,1,835,2831a1.334,1.334,0,0,0,2.667,0,5.327,5.327,0,0,0-4-5.14v-1.53a1.334,1.334,0,0,0-2.667,0v1.53a5.318,5.318,0,0,0,1.334,10.47,2.67,2.67,0,1,1-2.667,2.67,1.334,1.334,0,0,0-2.667,0,5.327,5.327,0,0,0,4,5.14v1.53A1.334,1.334,0,0,0,833.667,2845.67ZM863,2827h18.667a1.335,1.335,0,0,0,0-2.67H863A1.335,1.335,0,0,0,863,2827Zm22.668,0h2.666a1.335,1.335,0,0,0,0-2.67h-2.666A1.335,1.335,0,0,0,885.669,2827Z" transform="translate(-815 -2795)"/>
</svg>
