<svg xmlns="http://www.w3.org/2000/svg" width="90" height="81" viewBox="0 0 90 81">
  <defs>
    <style>
      .cls-1 {
        fill: #c2ac76;
        fill-rule: evenodd;
      }
    </style>
  </defs>
  <path class="cls-1" d="M849.8,2244.41a4.1,4.1,0,0,0-7.13,2.71,1.324,1.324,0,0,0,1.3,1.35h0.022a1.322,1.322,0,0,0,1.318-1.3,1.463,1.463,0,0,1,2.547-.97,1.307,1.307,0,0,0,1.862.08A1.327,1.327,0,0,0,849.8,2244.41Zm7.013,4.32a3.757,3.757,0,0,0-7,.17,1.328,1.328,0,0,0,.777,1.7,1.473,1.473,0,0,0,.459.08,1.321,1.321,0,0,0,1.236-.86,1.126,1.126,0,0,1,1.453-.67,1.079,1.079,0,0,1,.645.61A1.318,1.318,0,1,0,856.811,2248.73Zm8.5-11.73a1.309,1.309,0,0,0-1.864,0l-1.243,1.25a1.326,1.326,0,0,0,0,1.87,1.309,1.309,0,0,0,1.864,0l1.243-1.25A1.324,1.324,0,0,0,865.308,2237Zm-8.2,17.1h-1.757a1.32,1.32,0,0,0,0,2.64h1.757A1.32,1.32,0,0,0,857.106,2254.1Zm13.473,0h-1.758a1.32,1.32,0,0,0,0,2.64h1.758A1.32,1.32,0,0,0,870.579,2254.1Zm34.377,23.87-0.344-1.86a2.5,2.5,0,0,0-2.458-2.05,2.316,2.316,0,0,0-.454.04l-6.989,1.29,3.165-2.12a2.525,2.525,0,0,0,1.068-2.55,2.451,2.451,0,0,0-.281-0.77l-0.958-1.7a2.534,2.534,0,0,0-1.534-1.2,2.642,2.642,0,0,0-.97-0.06,33.561,33.561,0,0,0,.535-5.98,2.209,2.209,0,0,0-1.311-2.02,10.187,10.187,0,0,0,.081-7.68,1.619,1.619,0,0,0-.356-0.55,1.8,1.8,0,0,0-.539-0.36,10.127,10.127,0,0,0-3.726-.71c-0.164,0-.327,0-0.489.01a6.983,6.983,0,0,0-6.946-6.65,6.724,6.724,0,0,0-1.428.15,10.962,10.962,0,0,0-.615-5.83,1.629,1.629,0,0,0-.364-0.56,1.551,1.551,0,0,0-.547-0.36,10.757,10.757,0,0,0-9.794.9,13.184,13.184,0,0,0-3.1-4.99,2.232,2.232,0,0,0-3.169,0l-6.383,6.43a6.6,6.6,0,0,0-4.423-1.69,6.337,6.337,0,0,0-1.148.1,6.663,6.663,0,0,1-7.65,1.34,6.333,6.333,0,0,0-.877.21v-4.95a6.241,6.241,0,0,0-6.1-6.25v-2.81a2.2,2.2,0,0,0,1.822-2.17v-6.36a2.2,2.2,0,0,0-2.2-2.21H825.749a2.205,2.205,0,0,0-2.2,2.21v6.36a2.2,2.2,0,0,0,1.822,2.17v2.81a6.241,6.241,0,0,0-6.1,6.25v38.65a12.679,12.679,0,0,0-4.271,9.41c0,7.24,6.332,13.14,14.116,13.14l52.766-.02a6.051,6.051,0,0,0,5.971-7.01l10.539,1.91a3.3,3.3,0,0,0,.444.04,2.456,2.456,0,0,0,1.455-.47,2.507,2.507,0,0,0,1.019-1.67l0.285-1.93a2.481,2.481,0,0,0-.013-0.82,2.507,2.507,0,0,0-1.9-1.99l-3.714-.86,6.982-1.28a2.533,2.533,0,0,0,1.608-1.05A2.5,2.5,0,0,0,904.956,2277.97Zm-15.071-25.64a7.339,7.339,0,0,1,2.324.38,7.533,7.533,0,0,1-.631,6.09h-3.551l1.133-1.14a1.336,1.336,0,0,0,0-1.88,1.318,1.318,0,0,0-1.864.01l-0.6.6a6.109,6.109,0,0,0-1.417-2.44A7.323,7.323,0,0,1,889.885,2252.33Zm-7.435-6.63a4.338,4.338,0,0,1,4.318,4.35c0,0.04,0,.09,0,0.13a10.09,10.09,0,0,0-3.763,2.24c-0.174-.06-0.35-0.12-0.531-0.17a6.144,6.144,0,0,0-3.644-4.56A4.3,4.3,0,0,1,882.45,2245.7Zm-6.969-7.38a8.083,8.083,0,0,1,2.624.44,8.315,8.315,0,0,1-.327,6.11,6.981,6.981,0,0,0-1.688,2.35c-0.236.02-.471,0.04-0.7,0.08a6.073,6.073,0,0,0-2.8,1.29,6.9,6.9,0,0,0-1-1.39l3.023-3.05a1.321,1.321,0,0,0-1.867-1.87l-3.3,3.33a6.615,6.615,0,0,0-2.023-.6,8.3,8.3,0,0,1,2.253-4.26A8.12,8.12,0,0,1,875.481,2238.32Zm-10.1,20.48h-1.142a1.315,1.315,0,0,0-2.453,0h-1.345a1.328,1.328,0,0,0-.191-1.63,1.31,1.31,0,0,0-1.865,0l-1.242,1.25a1.245,1.245,0,0,0-.261.38H854.2a10.524,10.524,0,0,1-1.691-5.35h20.915a10.515,10.515,0,0,1-1.691,5.35h-2.792a1.26,1.26,0,0,0-.26-0.38l-1.243-1.25a1.309,1.309,0,0,0-1.864,0A1.329,1.329,0,0,0,865.379,2258.8Zm-3.066-7.99a4.308,4.308,0,0,1,8.336,0h-8.336Zm2.7-16.29a10.491,10.491,0,0,1,2.49,4.68,10.887,10.887,0,0,0-1.673,2.41,1.342,1.342,0,0,0-.687-0.2h-1.757a1.325,1.325,0,0,0,0,2.65h1.541q-0.129.555-.2,1.11a7.018,7.018,0,0,0-1.491.59,6.662,6.662,0,0,0-4.058-3.12,0.036,0.036,0,0,0,0-.01,6.744,6.744,0,0,0-.529-1.7Zm-23.831,11.95a4.129,4.129,0,0,1-.175-0.66,4.029,4.029,0,0,1,3.97-4.73,3.957,3.957,0,0,1,2.4.81,1.321,1.321,0,0,0,1.887-.33,3.972,3.972,0,0,1,2.667-1.75,4.081,4.081,0,0,1,.7-0.06,4,4,0,0,1,3.947,3.33,4.229,4.229,0,0,1,.059.69,1.322,1.322,0,0,0,1.2,1.32,4.013,4.013,0,0,1,3.31,2.37,7.015,7.015,0,0,0-1.524,3.35H852.1a2.241,2.241,0,0,0-2.071,1.4,9.9,9.9,0,0,0-5.647-1.75,10.146,10.146,0,0,0-3.727.72,1.826,1.826,0,0,0-.538.36,1.613,1.613,0,0,0-.355.54,10.138,10.138,0,0,0-.615,2.36,4,4,0,0,1-.936-1.97,4.044,4.044,0,0,1,2.277-4.35A1.328,1.328,0,0,0,841.178,2246.47Zm3.93,11.97,0.359,0.36H842.3a7.533,7.533,0,0,1-.242-5.31,7.366,7.366,0,0,1,7.586,1.82,6.827,6.827,0,0,1,.525.59,13.156,13.156,0,0,0,1.009,2.9h-1.987l-2.218-2.23a1.318,1.318,0,0,0-1.864-.01A1.336,1.336,0,0,0,845.108,2258.44Zm-5.615.36h-4.7a4.348,4.348,0,0,1,2.043-3.02,6.683,6.683,0,0,0,2.4,2C839.309,2258.12,839.391,2258.46,839.493,2258.8Zm-13.3-42.15h9.842v5.48h-9.842v-5.48Zm8.02,8.13v2.77h-6.2v-2.77h6.2Zm-12.3,14.39h8.561a1.325,1.325,0,0,0,0-2.65h-8.561v-2.72a3.589,3.589,0,0,1,3.575-3.6h11.255a3.588,3.588,0,0,1,3.575,3.6v2.72h-2.461a1.325,1.325,0,0,0,0,2.65h2.461v1.18a6.683,6.683,0,0,0-1.907,5.91s0,0.01,0,.01a6.707,6.707,0,0,0-2.793,6.65c0.026,0.16.059,0.3,0.095,0.45a7.149,7.149,0,0,0-1.757,1.39H821.907v-15.59Zm0,18.24h10.514a6.856,6.856,0,0,0-.287,1.39h-0.222a2.208,2.208,0,0,0-2.2,2.21,33.724,33.724,0,0,0,.572,6.19c-0.379-.03-0.767-0.05-1.163-0.05a11.99,11.99,0,0,0-4.276.72c-1.78.7-2.272,1.71-2.379,2.4-0.189.09-.374,0.19-0.558,0.29v-13.15Zm16.694,16.27a4.77,4.77,0,0,1,.933.94h-0.049a8.268,8.268,0,0,1-3.611-1.15,10.442,10.442,0,0,1-1.513-1.03,1.31,1.31,0,0,0-1.7,0,9.734,9.734,0,0,1-1.512,1.03,8.272,8.272,0,0,1-3.611,1.15h-0.05a4.77,4.77,0,0,1,.933-0.94,1.337,1.337,0,0,0,.444-1.4,1.308,1.308,0,0,0-1.114-.95,6.24,6.24,0,0,1-2.481-.72,7.458,7.458,0,0,1,3.855-.81,8.118,8.118,0,0,1,3.743.74,1.345,1.345,0,0,0,1.291,0,8.115,8.115,0,0,1,3.743-.74,7.458,7.458,0,0,1,3.855.81,6.246,6.246,0,0,1-2.482.72,1.306,1.306,0,0,0-1.113.95A1.334,1.334,0,0,0,838.6,2273.68Zm-2.637,16.12,0.045,0.24a6.076,6.076,0,0,0,.949,2.31h-7.842c-6.33,0-11.48-4.71-11.48-10.49a10.413,10.413,0,0,1,5.949-9.2,5.462,5.462,0,0,0,1.517.78,3.158,3.158,0,0,0-.445,1.31,2.152,2.152,0,0,0,.525,1.63,2.969,2.969,0,0,0,2.352.89,10.845,10.845,0,0,0,4.888-1.49,11.184,11.184,0,0,0,1.087-.67,11.184,11.184,0,0,0,1.087.67,10.849,10.849,0,0,0,4.889,1.49h0a2.972,2.972,0,0,0,2.352-.89,2.155,2.155,0,0,0,.524-1.63,3.142,3.142,0,0,0-.444-1.31,5.456,5.456,0,0,0,1.516-.78,10.7,10.7,0,0,1,5.65,6.82l-9.324,3.55A6.073,6.073,0,0,0,835.964,2289.8Zm48.541,1.3a3.385,3.385,0,0,1-2.624,1.24H880.5l-0.864-4.69a1.319,1.319,0,1,0-2.593.48l0.776,4.21H873.28l-0.585-3.17a1.319,1.319,0,1,0-2.593.48l0.5,2.69H860.047l-0.794-4.3a1.319,1.319,0,1,0-2.593.48l0.706,3.82-15.406.01h0a3.409,3.409,0,0,1-3.358-2.79l-0.045-.25a3.412,3.412,0,0,1,2.139-3.8l5.181-1.98,0.386,2.1a1.325,1.325,0,0,0,1.3,1.08,1.99,1.99,0,0,0,.242-0.02,1.334,1.334,0,0,0,1.056-1.55l-0.474-2.56,7.691-2.94a1.321,1.321,0,1,0-.936-2.47l-3.579,1.36a13.4,13.4,0,0,0-7-8.26c-0.107-.7-0.6-1.7-2.379-2.4a11.99,11.99,0,0,0-4.276-.72,13.406,13.406,0,0,0-3.07.34v-0.8a1.319,1.319,0,0,0-1.319-1.32,1.35,1.35,0,0,0-.814.28,30.925,30.925,0,0,1-.344-4.2h42.94a1.325,1.325,0,0,0,0-2.65h-0.539a13.194,13.194,0,0,0,1.314-5.74,2.248,2.248,0,0,0-2.024-2.24,3.457,3.457,0,0,1,1.8-.91,4.13,4.13,0,0,1,.607-0.05,3.506,3.506,0,0,1,3.49,3.51,1.319,1.319,0,0,0,1.2,1.31,3.5,3.5,0,0,1,3.125,4.12H882.85a1.325,1.325,0,0,0,0,2.65H893.1a30.554,30.554,0,0,1-.925,7.1l-7.145,4.24a6.049,6.049,0,0,0-7.968-3.99l-14.715,5.61a1.329,1.329,0,0,0-.764,1.71,1.312,1.312,0,0,0,1.7.77l1.939-.74,0.6,3.27a1.324,1.324,0,0,0,1.294,1.08,1.99,1.99,0,0,0,.242-0.02,1.333,1.333,0,0,0,1.056-1.55l-0.689-3.73,10.271-3.92a3.378,3.378,0,0,1,2.893.21,3.417,3.417,0,0,1,1.683,2.35l2.667,14.47A3.38,3.38,0,0,1,884.505,2291.1Zm4.7-10.36a1.324,1.324,0,0,0-.057,2.59l9.816,2.26-0.245,1.66-11.379-2.06-1.779-9.65,9.911-5.87,0.826,1.47-8.36,5.61a1.33,1.33,0,0,0-.489,1.6,1.309,1.309,0,0,0,1.46.8l13.132-2.42,0.292,1.59Z" transform="translate(-815 -2214)"/>
</svg>
