<svg xmlns="http://www.w3.org/2000/svg" width="79.97" height="80" viewBox="0 0 79.97 80">
  <defs>
    <style>
      .cls-1 {
        fill: #c2ac76;
        fill-rule: evenodd;
      }
    </style>
  </defs>
  <path class="cls-1" d="M1292.85,1712.65h-7.53v-11.09a1.181,1.181,0,0,0-2.36,0v11.05h-10.68v-33.09a1.176,1.176,0,0,0-1.18-1.18h-34.21a1.182,1.182,0,0,0-1.18,1.18v7.34a1.181,1.181,0,0,0,2.36,0v-6.17h12.92l-8.61,8.53a1.178,1.178,0,0,0,1.67,1.66l8.77-8.69v7.07a1.192,1.192,0,0,0-.48.29l-14.27,14.15v-11.37a1.181,1.181,0,0,0-2.36,0v20.28h-10.67v-60.9h7.81v11.23a1.174,1.174,0,0,0,1.18,1.17h39.93a1.174,1.174,0,0,0,1.18-1.17v-11.23h7.82v44.53a1.181,1.181,0,0,0,2.36,0v-45.71a1.18,1.18,0,0,0-1.18-1.17h-9v-13.19a1.174,1.174,0,0,0-1.18-1.17h-27.53a1.17,1.17,0,0,0,0,2.34h26.35v24.42h-37.56v-24.42h5.22a1.17,1.17,0,0,0,0-2.34h-6.41a1.174,1.174,0,0,0-1.18,1.17v13.19h-8.99a1.182,1.182,0,0,0-1.19,1.17v62.12h-7.53a1.176,1.176,0,0,0,0,2.35h77.71A1.175,1.175,0,0,0,1292.85,1712.65Zm-36.9-.04,9.09-9.01a1.178,1.178,0,0,0-1.67-1.66l-8.19,8.12v-6.89l14.74-14.61v24.05h-13.97Zm13.97-27.22a1.258,1.258,0,0,0-.42.27l-14.32,14.2v-19.17h14.74v4.7h0Zm-31.85,21.63,14.75-14.62v20.21h-14.75v-5.59Zm3.92-37.17a1.17,1.17,0,0,0,0,2.34h24.18a1.17,1.17,0,0,0,0-2.34h-24.18Zm-3.47-24.12a1.174,1.174,0,0,0-1.18,1.17v5.87a1.182,1.182,0,0,0,1.18,1.18h3.32v1.73a1.18,1.18,0,0,0,1.18,1.17h4.61a1.148,1.148,0,0,0,.84-0.35,1.165,1.165,0,0,0,.35-0.83l-0.01-4.91,10.38,0.02v4.91a1.174,1.174,0,0,0,1.18,1.17h4.61a1.214,1.214,0,0,0,.84-0.34,1.173,1.173,0,0,0,.34-0.83v-1.74h3.31a1.182,1.182,0,0,0,1.18-1.18v-5.87a1.174,1.174,0,0,0-1.18-1.17h-3.31l-0.01-2.3a1.18,1.18,0,0,0-1.18-1.17h-4.61a1.214,1.214,0,0,0-.84.34,1.173,1.173,0,0,0-.34.83v5.01l-10.37-.02v-5a1.182,1.182,0,0,0-1.19-1.17h-4.6a1.178,1.178,0,0,0-1.19,1.17v2.31h-3.31Zm29.77,2.34v3.53h-2.13v-3.53h2.13Zm-4.5-3.46v2.07a1.5,1.5,0,0,0-.02.22,1.635,1.635,0,0,0,.02.22l0.01,5.41a0.986,0.986,0,0,0-.03.24,0.875,0.875,0,0,0,.03.24v1.51h-2.25l-0.01-9.91h2.25Zm-24.08,6.99v-3.53h2.13v3.53h-2.13Zm6.73-7.01,0.01,9.91h-2.24l-0.01-1.51a0.78,0.78,0,0,0,.03-0.22,0.892,0.892,0,0,0-.03-0.22v-5.41a0.975,0.975,0,0,0,0-.48v-2.07h2.24Z" transform="translate(-1214.03 -1635)"/>
</svg>
