<svg xmlns="http://www.w3.org/2000/svg" width="61.97" height="80" viewBox="0 0 61.97 80">
  <defs>
    <style>
      .cls-1 {
        fill: #c2ac76;
        fill-rule: evenodd;
      }
    </style>
  </defs>
  <path class="cls-1" d="M1258.94,2252.51a0.959,0.959,0,0,0-.59-0.59h0c-2.72-.96-6.41,1.07-8.16,2.82a4.623,4.623,0,0,0-.96,5.52l-3.27,3.28v-6.33a5.388,5.388,0,0,0,3.92-5.4c0-3.42-1.71-7.93-4.47-9.25a0.965,0.965,0,0,0-.83.01v-0.01c-2.76,1.32-4.47,5.83-4.47,9.25a5.388,5.388,0,0,0,3.92,5.4v6.28l-3.25-3.25a4.634,4.634,0,0,0-.95-5.53c-1.75-1.75-5.44-3.78-8.16-2.82v0.01a0.944,0.944,0,0,0-.59.58c-0.97,2.72,1.07,6.41,2.82,8.16a4.961,4.961,0,0,0,3.49,1.49,4.073,4.073,0,0,0,2.03-.53l4.61,4.62v2.41a0.965,0.965,0,0,0,1.93,0v-2.36l4.64-4.65a3.972,3.972,0,0,0,2.03.53,4.978,4.978,0,0,0,3.49-1.49C1257.87,2258.91,1259.9,2255.22,1258.94,2252.51Zm-23.68,6.77c-1.44-1.44-2.68-4.02-2.47-5.68,1.66-.21,4.24,1.04,5.68,2.48a2.881,2.881,0,0,1,.85,2.7l-2.35-2.36a0.965,0.965,0,1,0-1.37,1.36l2.36,2.35A2.888,2.888,0,0,1,1235.26,2259.28Zm6.78-7.47c0-2.59,1.19-6.03,2.96-7.26,1.76,1.23,2.95,4.67,2.95,7.26a3.582,3.582,0,0,1-1.99,3.38v-4.42a0.965,0.965,0,0,0-1.93,0v4.42A3.582,3.582,0,0,1,1242.04,2251.81Zm12.71,7.49a2.9,2.9,0,0,1-2.69.86l2.38-2.38a0.962,0.962,0,0,0-1.36-1.36l-2.39,2.38a2.9,2.9,0,0,1,.86-2.7c1.44-1.44,4.02-2.68,5.68-2.47C1257.44,2255.29,1256.19,2257.86,1254.75,2259.3Zm-9.75,14.09a18.4,18.4,0,1,1,18.41-18.4A18.433,18.433,0,0,1,1245,2273.39Zm0-34.87a16.47,16.47,0,1,0,16.48,16.47A16.5,16.5,0,0,0,1245,2238.52Zm25.96,45.88a5.336,5.336,0,0,0-3.16-.44,121.308,121.308,0,0,0,0-57.94,6.153,6.153,0,0,0,.88.07,5.262,5.262,0,0,0,2.28-.51c2.53-1.21,4.24-4.39,5.02-9.48a0.969,0.969,0,0,0-1.1-1.1h0c-5.09.8-8.28,2.49-9.48,5.01a5.151,5.151,0,0,0-.51,2.47,23.977,23.977,0,0,0-4.46-1.19,100.7,100.7,0,0,0-30.87,0,24.546,24.546,0,0,0-4.45,1.18,5.384,5.384,0,0,0-.51-2.46c-1.21-2.52-4.4-4.21-9.49-5.01h0a1.047,1.047,0,0,0-1.1,1.1c0.8,5.08,2.49,8.27,5.02,9.48a5.262,5.262,0,0,0,2.28.51,6.037,6.037,0,0,0,.88-0.07,121.56,121.56,0,0,0,0,57.94,5.327,5.327,0,0,0-3.16.44c-3.04,1.47-5.03,8.39-5.02,9.78a0.907,0.907,0,0,0,.95.81c0.98,0,8.39-1.95,9.64-5.02a6.24,6.24,0,0,0,.51-2.47,23.961,23.961,0,0,0,4.45,1.18,99.866,99.866,0,0,0,30.87,0,24.1,24.1,0,0,0,4.46-1.18,5.151,5.151,0,0,0,.51,2.47c1.2,2.52,4.4,4.16,9.48,5.01a0.556,0.556,0,0,0,.3,0,0.949,0.949,0,0,0,.8-1.1C1275.18,2288.8,1273.49,2285.61,1270.96,2284.4Zm-3.82-63.56c0.8-1.68,3.11-2.95,6.69-3.69-0.74,3.56-2,5.86-3.68,6.68A2.121,2.121,0,1,1,1267.14,2220.84Zm-36.65,2.24a100.713,100.713,0,0,1,29.01,0c4.55,0.79,5.94,1.72,6.11,2.03v0.01c0,0.02.25,1.07,0.36,1.5a26.477,26.477,0,0,0-5.23-1.33,110.188,110.188,0,0,0-31.48,0,25.419,25.419,0,0,0-5.23,1.33c0.1-.43.35-1.5,0.35-1.51C1224.55,2224.8,1225.94,2223.87,1230.49,2223.08Zm-10.63.76c-1.69-.81-2.96-3.11-3.7-6.69,3.57,0.74,5.87,2,6.69,3.67a3.712,3.712,0,0,1,.02,3.02A3.761,3.761,0,0,1,1219.86,2223.84Zm3,65.3c-0.81,1.68-3.11,2.95-6.7,3.69,0.74-3.56,2-5.86,3.68-6.68a3.715,3.715,0,0,1,3.02-.02A3.757,3.757,0,0,1,1222.86,2289.14Zm42.75-4.28c-0.17.32-1.56,1.25-6.11,2.04a100.644,100.644,0,0,1-29,0c-4.56-.79-5.95-1.72-6.12-2.04,0,0-.25-1.07-0.35-1.51a26.009,26.009,0,0,0,5.22,1.34,111.232,111.232,0,0,0,31.49,0,26.339,26.339,0,0,0,5.23-1.34C1265.86,2283.79,1265.61,2284.86,1265.61,2284.86Zm-5.49-2.02a109.461,109.461,0,0,1-30.25,0c-4.87-.8-6.3-1.77-6.44-2.05v-0.01a119.34,119.34,0,0,1,0-51.58c0.16-.32,1.62-1.27,6.44-2.06a109.461,109.461,0,0,1,30.25,0c4.86,0.8,6.3,1.76,6.44,2.05a119.541,119.541,0,0,1,.01,51.59C1266.41,2281.09,1264.95,2282.04,1260.12,2282.84Zm7.03,6.32a3.632,3.632,0,0,1-.02-3.02,3.733,3.733,0,0,1,3,0c1.69,0.81,2.96,3.11,3.7,6.69C1270.26,2292.09,1267.96,2290.83,1267.15,2289.16Z" transform="translate(-1214 -2215)"/>
</svg>
