<svg xmlns="http://www.w3.org/2000/svg" width="80" height="80" viewBox="0 0 80 80">
  <defs>
    <style>
      .cls-1 {
        fill: #c2ac76;
        fill-rule: evenodd;
      }
    </style>
  </defs>
  <path class="cls-1" d="M1292.67,1092.33H1260.3l1.52-10.66H1262a1.332,1.332,0,0,0,1.33-1.34V1075a1.323,1.323,0,0,0-1.33-1.33h-29.33a1.332,1.332,0,0,0-1.34,1.33v5.33a1.34,1.34,0,0,0,1.34,1.34h0.17l0.77,5.33h-18.28a1.336,1.336,0,0,0-1.33,1.33v5.34a1.336,1.336,0,0,0,1.33,1.33h0.24l2.43,12.13v5.12l-2.66,21.25a1.338,1.338,0,0,0,1.16,1.49,0.97,0.97,0,0,0,.17.01h76a1.336,1.336,0,0,0,1.33-1.33v-40A1.338,1.338,0,0,0,1292.67,1092.33Zm-72,16h16V1111h-16v-2.67Zm20.02-8h15.98V1103h-16.51Zm-6.69-24h26.67V1079H1234v-2.67Zm1.54,5.34h23.59l-2.29,16h-15.61l0.53-2.67H1242a1.329,1.329,0,0,0,1.33-1.33v-5.34A1.329,1.329,0,0,0,1242,1087h-5.7Zm-18.87,8h24v2.66h-24v-2.66Zm22.37,5.33-2.13,10.67h-16.48l-2.14-10.67h20.75Zm-20.86,37.33,2.33-18.66h16.31l2.34,18.66h-20.98Zm23.66,0-2.51-20.08v-5.12l0.3-1.46h17.15l2.43,26.66h-17.37Zm28.16,0v-8h13.33v8H1270Zm21.33,0H1286V1123a1.329,1.329,0,0,0-1.33-1.33h-16a1.332,1.332,0,0,0-1.34,1.33v9.33h-5.45l-2.55-28.06v-5.17l0.59-4.1h31.41v37.33Zm-12-25.33h5.34a1.336,1.336,0,0,0,1.33-1.33v-5.34a1.336,1.336,0,0,0-1.33-1.33h-5.34a1.336,1.336,0,0,0-1.33,1.33v5.34A1.336,1.336,0,0,0,1279.33,1107Zm1.34-5.33h2.66v2.66h-2.66v-2.66Zm-12,5.33H1274a1.329,1.329,0,0,0,1.33-1.33v-5.34A1.329,1.329,0,0,0,1274,1099h-5.33a1.338,1.338,0,0,0-1.34,1.33v5.34A1.338,1.338,0,0,0,1268.67,1107Zm1.33-5.33h2.67v2.66H1270v-2.66Zm9.33,16h5.34a1.338,1.338,0,0,0,1.33-1.34V1111a1.329,1.329,0,0,0-1.33-1.33h-5.34A1.329,1.329,0,0,0,1278,1111v5.33A1.338,1.338,0,0,0,1279.33,1117.67Zm1.34-5.34h2.66V1115h-2.66v-2.67Zm-12,5.34H1274a1.332,1.332,0,0,0,1.33-1.34V1111a1.323,1.323,0,0,0-1.33-1.33h-5.33a1.332,1.332,0,0,0-1.34,1.33v5.33A1.34,1.34,0,0,0,1268.67,1117.67Zm1.33-5.34h2.67V1115H1270v-2.67ZM1216.93,1083h2.67a1.652,1.652,0,0,1,.69-1.3,4.151,4.151,0,0,0,.43-5.86,4.362,4.362,0,0,0-.43-0.43,1.57,1.57,0,0,1,0-2.6,4.173,4.173,0,0,0,1.44-3.14h-2.66a1.651,1.651,0,0,1-.7,1.3,4.161,4.161,0,0,0,0,6.29,1.557,1.557,0,0,1,0,2.6A4.191,4.191,0,0,0,1216.93,1083Zm6.67,0h2.67a1.652,1.652,0,0,1,.69-1.3,4.151,4.151,0,0,0,.43-5.86,5.814,5.814,0,0,0-.43-0.43,1.57,1.57,0,0,1,0-2.6,4.207,4.207,0,0,0,1.44-3.14h-2.67a1.666,1.666,0,0,1-.69,1.3,4.161,4.161,0,0,0,0,6.29,1.57,1.57,0,0,1,0,2.6A4.157,4.157,0,0,0,1223.6,1083Zm13.33-14.67h2.67a1.635,1.635,0,0,1,.69-1.29,4.164,4.164,0,0,0,.43-5.87,3.421,3.421,0,0,0-.43-0.42,1.57,1.57,0,0,1,0-2.6,4.194,4.194,0,0,0,1.44-3.15h-2.66a1.637,1.637,0,0,1-.7,1.3,4.161,4.161,0,0,0,0,6.29,1.557,1.557,0,0,1,0,2.6A4.207,4.207,0,0,0,1236.93,1068.33Zm8,0h2.67a1.635,1.635,0,0,1,.69-1.29,4.164,4.164,0,0,0,.43-5.87,3.421,3.421,0,0,0-.43-0.42,1.57,1.57,0,0,1,0-2.6,4.194,4.194,0,0,0,1.44-3.15h-2.66a1.637,1.637,0,0,1-.7,1.3,4.161,4.161,0,0,0,0,6.29,1.557,1.557,0,0,1,0,2.6A4.207,4.207,0,0,0,1244.93,1068.33Zm8,0h2.67a1.635,1.635,0,0,1,.69-1.29,4.164,4.164,0,0,0,.43-5.87,3.421,3.421,0,0,0-.43-0.42,1.57,1.57,0,0,1,0-2.6,4.194,4.194,0,0,0,1.44-3.15h-2.66a1.637,1.637,0,0,1-.7,1.3,4.161,4.161,0,0,0,0,6.29,1.557,1.557,0,0,1,0,2.6A4.207,4.207,0,0,0,1252.93,1068.33Z" transform="translate(-1214 -1055)"/>
</svg>
