<svg xmlns="http://www.w3.org/2000/svg" width="80" height="80" viewBox="0 0 80 80">
  <defs>
    <style>
      .cls-1 {
        fill: #c2ac76;
        fill-rule: evenodd;
      }
    </style>
  </defs>
  <path class="cls-1" d="M490.129,2258.87V2242.1a3.871,3.871,0,0,0-3.871-3.87h-2.581a3.828,3.828,0,0,0-2.58,1,3.833,3.833,0,0,0-2.581-1h-2.581a3.83,3.83,0,0,0-2.58,1,3.833,3.833,0,0,0-2.581-1h-2.581a3.87,3.87,0,0,0-3.87,3.87v16.55c-2.977-2.06-7.322-3.82-13.683-4.56l2.032-14.23a3.535,3.535,0,0,0,.038-0.52,3.7,3.7,0,0,0-3.7-3.69H437.226v-11.62a1.293,1.293,0,0,1,1.29-1.29h10.323a3.87,3.87,0,1,0,0-7.74H437.226a7.748,7.748,0,0,0-7.742,7.74v12.91H417.7a3.7,3.7,0,0,0-3.7,3.69,3.934,3.934,0,0,0,.037.53l3.11,21.76a12.673,12.673,0,0,0-3.147,7.56,5.145,5.145,0,0,1,2.581,7.75,5.135,5.135,0,0,0,1.428,3.54,7.739,7.739,0,0,0,3.733,14.52H494v-32.26A3.878,3.878,0,0,0,490.129,2258.87Zm-7.742-16.77a1.293,1.293,0,0,1,1.29-1.29h2.581a1.293,1.293,0,0,1,1.29,1.29v16.77h-5.161V2242.1Zm-7.742,0a1.293,1.293,0,0,1,1.29-1.29h2.581a1.293,1.293,0,0,1,1.29,1.29v16.77h-5.161V2242.1Zm-7.742,0a1.293,1.293,0,0,1,1.29-1.29h2.581a1.293,1.293,0,0,1,1.29,1.29v16.77H466.9V2242.1Zm-20.645-24.52h2.581a1.29,1.29,0,1,1,0,2.58h-2.581v-2.58Zm-5.161,0h2.58v2.58H441.1v-2.58Zm-9.033,5.16a5.17,5.17,0,0,1,5.162-5.16h1.29v2.58a3.878,3.878,0,0,0-3.871,3.87v11.62h-2.581v-12.91Zm-15.286,18.07-0.186-1.3a1.386,1.386,0,0,1-.011-0.17,1.117,1.117,0,0,1,1.118-1.11H449.01a1.117,1.117,0,0,1,1.119,1.11,1.294,1.294,0,0,1-.01.16l-0.187,1.31h-3.674v2.58h3.3l-0.736,5.16H417.884l-0.737-5.16h26.53v-2.58h-26.9Zm31.68,10.32-0.39,2.73c-1.382-.1-2.837-0.15-4.391-0.15H441.1c-11.244,0-17.812,2.62-21.661,5.7l-1.183-8.28h30.205Zm-31.877,18.06c0-.13.28-12.9,24.516-12.9h2.58c24.069,0,24.51,12.38,24.516,12.9a2.578,2.578,0,0,1-2.58,2.58H419.161A2.578,2.578,0,0,1,416.581,2269.19Zm5.161,10.33a2.585,2.585,0,0,1,0-5.17h41.29a2.585,2.585,0,0,1,0,5.17h-41.29Zm35.9,2.58-5.294,6.17-14.12-6.17h19.414Zm5.386,10.32h-41.29a5.16,5.16,0,1,1,0-10.32H431.8l21.272,9.3,7.978-9.3h1.987A5.16,5.16,0,1,1,463.032,2292.42Zm3.734-11.94a5.077,5.077,0,0,0,.71-6.13h18.782v12.91H470.774a7.7,7.7,0,0,0-.451-2.58h8.193v-2.58h-9.729A7.632,7.632,0,0,0,466.766,2280.48Zm24.653-13.87h-2.58v2.58h2.58v23.23H468.787a7.776,7.776,0,0,0,1.536-2.58h18.516v-18.07H470.057a5.082,5.082,0,0,0,.717-2.58h15.484v-2.58H470.337a13.911,13.911,0,0,0-2.863-5.16h22.655a1.293,1.293,0,0,1,1.29,1.29v3.87ZM481.1,2282.1h2.58v2.58H481.1v-2.58Zm-50.323-23.23h2.581v2.58h-2.581v-2.58Zm5.161,2.58h2.581v2.58h-2.581v-2.58Zm5.162-2.58h2.58v2.58H441.1v-2.58Zm7.742,3.87h2.58v2.58h-2.58v-2.58Zm6.451-3.87h2.581v2.58H455.29v-2.58Zm-32.258,5.16h2.581v2.58h-2.581v-2.58Z" transform="translate(-414 -2215)"/>
</svg>
