<svg xmlns="http://www.w3.org/2000/svg" width="49" height="80" viewBox="0 0 49 80">
  <defs>
    <style>
      .cls-1 {
        fill: #c2ac76;
        fill-rule: evenodd;
      }
    </style>
  </defs>
  <path class="cls-1" d="M458.98,1671.63a8.347,8.347,0,0,1-3.717-6.95v-11.62h1.29a2.577,2.577,0,0,0,2.578-2.58v-2.37a2.537,2.537,0,0,0-.132-0.81l-3.509-10.54a2.577,2.577,0,0,0-2.446-1.76H414v10.14l7.559,1.16a26.253,26.253,0,0,1-.593,3.24,25.056,25.056,0,0,1-6.588,11.64l-0.378.38v4.41h2.981a10.851,10.851,0,0,0,8.641-4.33,10.7,10.7,0,0,0,1.7-3.38l3.173-10.58,0.7,0.11,2.144,4.29v6.9l-3.746,3.75a9.167,9.167,0,0,0-2.7,6.53,9.264,9.264,0,0,0,.973,4.12l1.225,2.45a3.652,3.652,0,0,1,.381,1.62,3.6,3.6,0,0,1-1.695,3.06l-3.728,2.33a10.349,10.349,0,0,0-4.893,8.83,10.466,10.466,0,0,0,.473,3.11l5.185,16.6a5.141,5.141,0,0,0,4.923,3.62h28.1a5.161,5.161,0,0,0,5.158-5.16v-30.7A9.019,9.019,0,0,0,458.98,1671.63Zm-6.3-13.4h-3.868v-5.17h3.868v5.17Zm-16.763-5.17h3.868v5.17h-3.868v-5.17Zm6.447,0h3.869v5.17h-3.869v-5.17Zm-25.789-10.13v-5.35h5.158v5.79c0,0.12-.009.23-0.01,0.35Zm8.277,14.59a8.178,8.178,0,0,1-1.3,2.58,8.262,8.262,0,0,1-6.578,3.29h-0.4v-0.77a27.948,27.948,0,0,0,7.534-15.92l3.813,0.58Zm-0.564-13.41c0.007-.25.024-0.49,0.024-0.74v-5.79h28.728l3.509,10.53v2.37H435.429l-2.521-5.04Zm36.129,65.73a2.584,2.584,0,0,1-2.579,2.58h-28.1a2.572,2.572,0,0,1-2.461-1.81l-5.185-16.6a7.838,7.838,0,0,1,3.325-8.98l3.728-2.34a6.141,6.141,0,0,0,2.907-5.24,6.207,6.207,0,0,0-.653-2.77l-1.225-2.45a6.663,6.663,0,0,1,1.244-7.68l3.746-3.74h17.519v3.87a10.937,10.937,0,0,0,4.865,9.1,6.416,6.416,0,0,1,2.872,5.36v30.7Zm-26.714-36.32,2.305-1.15-1.222-2.45a1.476,1.476,0,0,1,.276-1.71l4.124-4.13-1.823-1.83-4.124,4.13a4.093,4.093,0,0,0-1.19,2.88,4.143,4.143,0,0,0,.429,1.82Zm17.688,2.77H440.756a3.8,3.8,0,0,0-3.708,3.22,11.072,11.072,0,0,1-5.171,7.56l-3.725,2.33a2.656,2.656,0,0,0-1.257,2.27,2.622,2.622,0,0,0,.119.79l4.054,12.99a2.574,2.574,0,0,0,2.462,1.81h19.154a2.584,2.584,0,0,0,2.579-2.58v-24.52A3.876,3.876,0,0,0,451.4,1676.29Zm1.289,28.39H433.53l-4.012-13.09,3.725-2.33a13.625,13.625,0,0,0,6.346-9.31,1.215,1.215,0,0,1,1.167-1.08H451.4a1.292,1.292,0,0,1,1.289,1.29v24.52Zm-18.052-11.62h2.578v2.59h-2.578v-2.59Zm6.447,0h2.579v2.59h-2.579v-2.59Zm6.447,0h2.579v2.59h-2.579v-2.59Zm-12.894,5.17h15.473v2.58H434.632v-2.58Zm3.868-10.33h11.605v2.58H438.5v-2.58Zm2.579-5.16h9.026v2.58h-9.026v-2.58Z" transform="translate(-414 -1635)"/>
</svg>
